<svg xmlns="http://www.w3.org/2000/svg" xmlns:xlink="http://www.w3.org/1999/xlink" width="1024" zoomAndPan="magnify" viewBox="0 0 768 767.999994" height="1024" preserveAspectRatio="xMidYMid meet" version="1.0"><defs><filter x="0%" y="0%" width="100%" height="100%" id="id1"><feColorMatrix values="0 0 0 0 1 0 0 0 0 1 0 0 0 0 1 0 0 0 1 0" color-interpolation-filters="sRGB"/></filter><clipPath id="id2"><path d="M 217.457031 245.59375 L 524.957031 245.59375 L 524.957031 522.34375 L 217.457031 522.34375 Z M 217.457031 245.59375 " clip-rule="nonzero"/></clipPath><mask id="id3"><g filter="url(#id1)"><rect x="-76.8" width="921.6" fill="#000000" y="-76.799999" height="921.599993" fill-opacity="0.3765"/></g></mask><clipPath id="id4"><path d="M 0.28125 0.902344 L 384 0.902344 L 384 540.152344 L 0.28125 540.152344 Z M 0.28125 0.902344 " clip-rule="nonzero"/></clipPath><clipPath id="id5"><rect x="0" width="385" y="0" height="541"/></clipPath></defs><g clip-path="url(#id2)"><path fill="#ffffff" d="M 512.136719 276.667969 C 512.148438 276.667969 512.164062 276.691406 512.179688 276.738281 C 512.222656 276.933594 512.222656 277.246094 512.183594 277.425781 C 512.167969 277.480469 512.152344 277.507812 512.136719 277.507812 C 512.105469 277.507812 512.085938 277.355469 512.085938 277.09375 C 512.082031 276.824219 512.105469 276.667969 512.136719 276.667969 Z M 321.261719 245.597656 C 320.804688 245.597656 320.492188 245.722656 320.136719 246.003906 C 319.726562 246.335938 319.628906 246.570312 319.632812 247.292969 C 319.636719 248.078125 319.734375 248.273438 320.382812 248.894531 C 320.796875 249.285156 321.582031 250.023438 322.132812 250.53125 C 322.664062 251.039062 323.46875 251.933594 323.882812 252.519531 C 324.296875 253.105469 324.847656 253.667969 325.101562 253.804688 C 325.335938 253.941406 325.535156 254.15625 325.535156 254.273438 C 325.535156 254.410156 325.710938 254.742188 325.949219 255.015625 L 326.34375 255.523438 L 325.914062 256.109375 C 325.699219 256.417969 325.464844 256.644531 325.382812 256.644531 C 325.378906 256.644531 325.371094 256.644531 325.367188 256.640625 C 324.503906 256.175781 322.210938 255.382812 321.035156 255.171875 C 320.542969 255.074219 319.703125 254.921875 319.152344 254.808594 C 317.703125 254.539062 316.3125 254.113281 315.390625 253.648438 C 314.941406 253.417969 314.238281 253.246094 313.808594 253.246094 C 313.804688 253.246094 313.804688 253.246094 313.800781 253.246094 C 313.15625 253.246094 312.960938 253.34375 312.589844 253.855469 C 312.042969 254.640625 311.875 256.03125 312.289062 256.632812 C 312.621094 257.140625 315.398438 258.320312 316.285156 258.320312 C 316.285156 258.320312 316.289062 258.320312 316.289062 258.320312 C 316.585938 258.320312 317.367188 258.589844 317.996094 258.898438 C 318.621094 259.230469 319.289062 259.480469 319.445312 259.480469 C 319.605469 259.480469 320.191406 259.59375 320.738281 259.75 C 321.289062 259.902344 322.113281 260.136719 322.582031 260.25 C 323.308594 260.441406 323.40625 260.5 323.191406 260.757812 C 323.074219 260.914062 322.910156 260.984375 322.667969 260.984375 C 322.550781 260.984375 322.414062 260.96875 322.253906 260.9375 C 321.390625 260.796875 314.257812 260.578125 311.140625 260.578125 C 310.433594 260.578125 309.929688 260.589844 309.757812 260.613281 C 308.71875 260.753906 308.527344 261.070312 308.53125 262.59375 C 308.558594 264.414062 308.832031 264.628906 311.300781 264.8125 C 312.417969 264.90625 314.257812 265.054688 315.394531 265.148438 C 316.53125 265.261719 318.628906 265.332031 320.078125 265.34375 L 322.679688 265.335938 L 322.410156 265.765625 C 322.253906 266 322 266.257812 321.84375 266.335938 C 321.414062 266.53125 319.730469 266.949219 318.632812 267.113281 C 318.105469 267.191406 317.167969 267.429688 316.5625 267.667969 C 315.957031 267.886719 314.507812 268.164062 313.332031 268.304688 C 310.378906 268.632812 310.242188 268.710938 310.167969 270.195312 C 310.132812 271.175781 310.191406 271.449219 310.527344 271.839844 C 310.871094 272.226562 310.953125 272.304688 312.59375 272.304688 C 313.019531 272.304688 313.546875 272.300781 314.210938 272.292969 C 317.65625 272.238281 320.671875 271.835938 321.882812 271.265625 C 322.375 271.023438 323.003906 270.9375 324.421875 270.9375 C 324.523438 270.9375 324.628906 270.9375 324.738281 270.941406 C 326.660156 270.953125 327.03125 271.007812 327.914062 271.457031 C 328.464844 271.726562 328.953125 272.019531 329.011719 272.117188 C 329.132812 272.3125 328.707031 273.859375 328.339844 274.542969 C 328.222656 274.796875 327.851562 275.210938 327.539062 275.484375 C 326.640625 276.292969 326.355469 278.230469 326.777344 280.769531 C 327.144531 283.019531 327.371094 283.484375 328.65625 283.484375 C 328.84375 283.484375 329.054688 283.476562 329.292969 283.457031 L 330.253906 283.394531 L 330.289062 282.027344 C 330.300781 280.617188 330.492188 279.367188 330.707031 279.1875 C 330.941406 278.992188 332.089844 277.441406 332.089844 277.304688 C 332.089844 276.972656 334.898438 274.871094 335.351562 274.867188 C 335.429688 274.867188 335.78125 274.632812 336.089844 274.355469 C 336.753906 273.765625 337.222656 273.570312 338.515625 273.269531 C 339.003906 273.171875 339.785156 272.894531 340.238281 272.695312 C 340.707031 272.480469 341.175781 272.300781 341.3125 272.300781 C 341.449219 272.300781 341.878906 271.945312 342.25 271.496094 C 343.007812 270.613281 343.398438 270.511719 348.214844 269.847656 C 351.816406 269.363281 352.714844 269.300781 358.296875 269.261719 C 358.832031 269.257812 359.335938 269.257812 359.800781 269.257812 C 364.503906 269.257812 365.914062 269.378906 367.894531 269.886719 C 369.402344 270.292969 370.050781 270.40625 372.988281 270.921875 C 373.910156 271.074219 375.359375 271.324219 376.222656 271.476562 C 378.503906 271.90625 380.699219 272.089844 383.691406 272.089844 C 384.585938 272.089844 385.546875 272.074219 386.605469 272.042969 L 391.105469 271.90625 L 391.597656 272.355469 C 391.875 272.605469 392.71875 273.308594 393.464844 273.929688 C 394.230469 274.554688 395.585938 275.820312 396.53125 276.753906 C 398.203125 278.429688 400.304688 280.296875 400.738281 280.472656 C 400.855469 280.53125 401.167969 280.765625 401.445312 280.996094 C 402.308594 281.796875 403.269531 282.535156 404.390625 283.253906 C 405 283.644531 405.648438 284.148438 405.84375 284.363281 C 406.039062 284.578125 406.351562 284.753906 406.546875 284.753906 L 406.550781 284.753906 C 406.746094 284.753906 406.941406 284.925781 407.019531 285.121094 C 407.082031 285.335938 407.257812 285.550781 407.414062 285.609375 C 407.964844 285.804688 407.753906 286.859375 406.953125 287.9375 C 406.546875 288.507812 406.039062 289.273438 405.84375 289.644531 C 405.652344 290.015625 405.222656 290.664062 404.890625 291.058594 C 404.578125 291.449219 404.09375 292.058594 403.820312 292.410156 C 403.136719 293.292969 402.667969 293.765625 401.773438 294.53125 C 399.664062 296.28125 397.851562 297.988281 396.699219 299.304688 C 396.386719 299.675781 395.355469 300.816406 394.417969 301.855469 C 393.464844 302.875 392.703125 303.800781 392.703125 303.878906 C 392.703125 304.035156 391.945312 305.035156 391.144531 305.917969 C 390.871094 306.210938 390.230469 306.976562 389.722656 307.625 C 389.214844 308.253906 387.851562 309.746094 386.703125 310.941406 C 385.550781 312.121094 384.128906 313.671875 383.542969 314.378906 C 382.957031 315.085938 382.394531 315.691406 382.316406 315.710938 C 382.238281 315.753906 381.945312 316.222656 381.691406 316.75 C 381.421875 317.28125 381.128906 317.710938 381.03125 317.710938 C 380.953125 317.714844 380.582031 318.222656 380.25 318.832031 C 379.164062 320.789062 378.753906 321.4375 378.226562 321.988281 C 377.933594 322.300781 377.703125 322.617188 377.703125 322.734375 C 377.703125 322.910156 376.164062 324.734375 375.128906 325.773438 C 374.835938 326.070312 374.546875 326.539062 374.46875 326.832031 C 374.410156 327.109375 374.195312 327.421875 374 327.519531 C 373.804688 327.636719 373.589844 327.875 373.511719 328.089844 C 373.457031 328.285156 373.164062 328.5 372.867188 328.5625 C 371.753906 328.800781 370.058594 330.546875 369.710938 331.820312 C 369.496094 332.625 367.546875 334.78125 367.039062 334.785156 C 366.863281 334.785156 366.179688 335.101562 365.496094 335.476562 C 364.539062 336.027344 364.1875 336.339844 363.855469 337.027344 C 363.429688 337.929688 362.921875 338.378906 362.082031 338.578125 C 361.769531 338.660156 361.4375 338.972656 361.203125 339.445312 C 361.007812 339.835938 360.542969 340.445312 360.171875 340.757812 C 359.800781 341.09375 359.390625 341.464844 359.273438 341.582031 C 358.824219 342.035156 357.027344 342.84375 356.457031 342.847656 C 356.144531 342.847656 355.8125 342.925781 355.753906 343.042969 C 355.695312 343.140625 355.089844 343.535156 354.425781 343.929688 C 353.742188 344.304688 352.980469 344.835938 352.726562 345.089844 C 352.492188 345.367188 351.808594 345.71875 351.222656 345.898438 C 350.460938 346.136719 350.109375 346.351562 349.953125 346.707031 C 349.835938 346.960938 349.503906 347.234375 349.230469 347.316406 C 348.957031 347.375 348.585938 347.53125 348.429688 347.671875 C 348.273438 347.828125 347.648438 348.140625 347.042969 348.417969 C 346.457031 348.675781 345.792969 349.109375 345.578125 349.382812 C 345.363281 349.65625 345.089844 349.914062 344.953125 349.953125 C 344.640625 350.070312 343.332031 351.191406 342.066406 352.488281 C 340.347656 354.214844 340.09375 354.511719 339.765625 355.175781 C 339.589844 355.527344 339.375 355.824219 339.277344 355.824219 C 339.179688 355.824219 339.003906 356.097656 338.851562 356.449219 C 338.714844 356.785156 338.304688 357.488281 337.957031 358 C 337.605469 358.527344 337.3125 359 337.3125 359.078125 C 337.3125 359.136719 336.984375 359.863281 336.574219 360.683594 C 336.167969 361.527344 335.683594 362.761719 335.492188 363.464844 C 335.296875 364.171875 335.066406 364.914062 334.988281 365.132812 C 334.679688 365.894531 334.21875 368.164062 334.21875 368.890625 C 334.222656 369.300781 334.085938 369.886719 333.933594 370.199219 C 333.777344 370.496094 333.640625 371.0625 333.644531 371.433594 C 333.644531 371.804688 333.546875 372.296875 333.414062 372.53125 C 333.160156 372.980469 332.890625 374.390625 332.796875 375.722656 C 332.707031 376.894531 332.53125 377.265625 332.003906 377.5625 C 331.710938 377.71875 331.515625 377.996094 331.515625 378.269531 C 331.515625 378.503906 331.304688 378.835938 331.03125 379.011719 C 330.777344 379.191406 330.484375 379.582031 330.40625 379.894531 C 330.234375 380.484375 329.238281 381.796875 328.324219 382.644531 C 328.011719 382.917969 327.25 383.664062 326.644531 384.273438 C 326.019531 384.902344 325.476562 385.410156 325.417969 385.414062 C 325.296875 385.414062 321.242188 389.457031 319.996094 390.832031 C 319.605469 391.246094 319.175781 391.8125 319.039062 392.046875 C 318.921875 392.304688 318.535156 392.832031 318.203125 393.226562 C 317.851562 393.636719 317.5 394.089844 317.382812 394.265625 C 317.285156 394.441406 316.703125 395.246094 316.097656 396.050781 C 314.792969 397.796875 314.074219 398.835938 313.296875 400.226562 C 312.984375 400.777344 312.519531 401.519531 312.285156 401.835938 C 312.03125 402.167969 311.835938 402.542969 311.835938 402.640625 C 311.835938 402.757812 311.625 403.089844 311.371094 403.402344 C 311.117188 403.699219 310.726562 404.34375 310.476562 404.816406 C 310.242188 405.304688 309.910156 405.835938 309.734375 405.992188 C 309.578125 406.148438 309.328125 406.582031 309.171875 406.933594 C 309.035156 407.285156 308.839844 407.578125 308.761719 407.578125 C 308.683594 407.582031 308.21875 408.167969 307.75 408.894531 C 307.28125 409.640625 306.777344 410.34375 306.640625 410.484375 C 306.503906 410.621094 306.386719 410.914062 306.386719 411.128906 C 306.390625 411.324219 306.3125 411.5 306.214844 411.503906 C 306.117188 411.503906 305.707031 412.03125 305.316406 412.679688 C 304.929688 413.324219 304.460938 413.953125 304.265625 414.089844 C 304.089844 414.230469 303.738281 414.640625 303.503906 414.972656 C 303.253906 415.328125 302.785156 415.761719 302.433594 415.917969 C 302.082031 416.09375 300.890625 417.097656 299.777344 418.175781 C 297.320312 420.554688 296.753906 421.007812 295.09375 421.855469 C 294.390625 422.207031 293.667969 422.582031 293.511719 422.679688 C 292.417969 423.273438 290.207031 424.277344 289.796875 424.398438 C 289.132812 424.558594 288.078125 425.050781 287.941406 425.246094 C 287.882812 425.34375 287.257812 425.71875 286.554688 426.074219 C 285.828125 426.449219 285.203125 426.839844 285.167969 426.980469 C 285.109375 427.117188 284.953125 427.234375 284.796875 427.234375 C 284.578125 427.234375 283.679688 427.667969 282.46875 428.378906 C 282.253906 428.496094 281.589844 428.832031 281.003906 429.109375 C 280.417969 429.402344 279.324219 429.976562 278.5625 430.410156 C 277.820312 430.820312 276.824219 431.355469 276.394531 431.570312 C 275.941406 431.808594 275.046875 432.476562 274.402344 433.066406 C 273.757812 433.65625 273.152344 434.125 273.054688 434.128906 C 272.820312 434.128906 269.914062 437.230469 269.195312 438.25 C 268.882812 438.699219 268.277344 439.425781 267.886719 439.878906 C 266.25 441.742188 265.785156 442.332031 265.785156 442.507812 C 265.785156 442.683594 264.574219 443.902344 261.589844 446.710938 C 260.945312 447.320312 259.386719 448.910156 258.140625 450.246094 C 256.890625 451.578125 255.332031 453.25 254.667969 453.953125 C 254.003906 454.660156 253.226562 455.523438 252.953125 455.898438 C 252.308594 456.742188 250.945312 458.136719 249.734375 459.195312 C 249.226562 459.628906 248.820312 460.0625 248.820312 460.121094 C 248.820312 460.453125 244.859375 464.125 244.058594 464.558594 C 243.550781 464.835938 242.90625 465.167969 242.652344 465.308594 C 242.378906 465.464844 242.066406 465.78125 241.96875 466.015625 C 241.792969 466.386719 240.835938 467.09375 239.234375 468.019531 C 239.039062 468.136719 238.707031 468.375 238.511719 468.550781 C 238.320312 468.746094 237.867188 468.886719 237.515625 468.886719 C 237.183594 468.890625 236.675781 469.027344 236.421875 469.207031 C 236.066406 469.441406 234.984375 469.5625 233.96875 469.5625 C 233.023438 469.5625 232.132812 469.457031 231.917969 469.242188 C 231.742188 469.046875 231.484375 468.914062 231.328125 468.914062 C 231.191406 468.914062 230.835938 468.796875 230.542969 468.640625 C 230.25 468.488281 229.40625 468.3125 228.664062 468.238281 C 227.917969 468.164062 227.308594 468.027344 227.308594 467.929688 C 227.308594 467.832031 226.835938 467.308594 226.289062 466.78125 C 225.445312 466.007812 225.113281 465.8125 224.570312 465.8125 C 224.566406 465.8125 224.5625 465.8125 224.558594 465.8125 C 224.167969 465.8125 223.679688 465.929688 223.464844 466.089844 C 223.25 466.246094 222.878906 466.402344 222.625 466.445312 C 222.273438 466.484375 221.980469 466.820312 221.511719 467.777344 C 220.988281 468.796875 220.777344 469.601562 220.453125 471.792969 C 220.109375 474.121094 220.035156 475.570312 220 481.4375 C 219.976562 485.230469 219.839844 489.886719 219.691406 491.804688 C 219.542969 493.703125 219.355469 496.34375 219.304688 497.671875 C 219.25 498.984375 219.117188 500.253906 219.039062 500.507812 C 218.945312 500.746094 218.769531 501.429688 218.675781 502.015625 C 217.503906 508.300781 217.621094 513.167969 219.007812 516.976562 C 219.285156 517.71875 219.582031 518.617188 219.683594 518.96875 C 219.863281 519.710938 220.394531 520.375 221.710938 521.523438 C 222.5625 522.277344 222.679688 522.335938 223.761719 522.335938 C 223.828125 522.335938 223.894531 522.335938 223.964844 522.335938 C 225.863281 522.328125 227.136719 521.679688 227.71875 520.40625 C 228.183594 519.445312 228.648438 517.859375 228.875 516.546875 C 228.933594 516.117188 229.222656 515.273438 229.496094 514.6875 C 229.785156 514.097656 230.15625 513.179688 230.328125 512.648438 C 230.484375 512.121094 230.851562 511.433594 231.105469 511.121094 C 231.378906 510.804688 231.59375 510.375 231.59375 510.160156 C 231.589844 509.964844 231.667969 509.789062 231.785156 509.789062 C 231.980469 509.789062 232.761719 508.726562 233.402344 507.550781 C 233.597656 507.199219 233.730469 506.574219 233.710938 506.0625 C 233.707031 505.574219 233.859375 504.617188 234.054688 503.910156 C 234.363281 502.777344 234.460938 502.636719 234.96875 502.539062 C 235.4375 502.457031 235.574219 502.28125 235.789062 501.558594 C 235.941406 501.046875 236.3125 500.441406 236.742188 500.066406 C 237.113281 499.714844 237.421875 499.339844 237.421875 499.242188 C 237.421875 498.988281 238.726562 497.027344 239.195312 496.59375 C 239.390625 496.398438 239.5625 496.085938 239.5625 495.890625 C 239.5625 495.695312 239.699219 495.421875 239.855469 495.28125 C 240.011719 495.144531 240.148438 494.929688 240.144531 494.792969 C 240.144531 494.539062 241.121094 494.007812 241.808594 493.867188 C 242.023438 493.828125 242.21875 493.609375 242.253906 493.375 C 242.292969 493.140625 242.527344 492.808594 242.800781 492.648438 C 243.328125 492.296875 243.441406 491.355469 243.027344 490.476562 C 242.828125 490.046875 242.867188 489.910156 243.296875 489.441406 C 243.570312 489.144531 243.941406 488.65625 244.136719 488.359375 C 244.328125 488.066406 244.757812 487.519531 245.089844 487.164062 C 245.421875 486.8125 245.851562 486.28125 246.042969 486.007812 C 246.238281 485.710938 246.570312 485.476562 246.765625 485.476562 C 246.980469 485.472656 247.15625 485.375 247.15625 485.257812 C 247.15625 485.121094 247.332031 484.867188 247.566406 484.671875 C 247.800781 484.472656 248.132812 484.023438 248.324219 483.667969 C 248.519531 483.296875 248.851562 483.003906 249.085938 482.960938 C 249.320312 482.921875 249.632812 482.648438 249.789062 482.335938 C 249.945312 482.019531 250.238281 481.726562 250.433594 481.648438 C 250.84375 481.527344 252.617188 479.839844 252.617188 479.585938 C 252.617188 479.390625 253.726562 478.015625 254.761719 476.894531 C 255.191406 476.445312 255.539062 475.972656 255.539062 475.855469 C 255.539062 475.503906 257.957031 473.167969 260.007812 471.535156 C 261.023438 470.730469 262.054688 469.863281 262.308594 469.609375 C 262.5625 469.375 262.835938 469.175781 262.894531 469.175781 C 262.972656 469.175781 263.871094 468.527344 264.925781 467.722656 C 265.960938 466.914062 267.015625 466.148438 267.269531 466.011719 C 267.523438 465.871094 267.875 465.617188 268.03125 465.441406 C 268.1875 465.265625 268.636719 464.949219 269.007812 464.753906 C 269.378906 464.554688 270.003906 464.160156 270.375 463.867188 C 270.746094 463.589844 271.390625 463.199219 271.800781 463 C 272.191406 462.824219 272.523438 462.605469 272.523438 462.507812 C 272.523438 462.429688 272.855469 462.214844 273.265625 462.015625 C 273.65625 461.820312 274.339844 461.40625 274.769531 461.089844 C 276.058594 460.148438 277.582031 459.144531 277.738281 459.144531 C 277.835938 459.144531 278.324219 458.789062 278.851562 458.355469 C 279.359375 457.925781 279.90625 457.570312 280.042969 457.570312 C 280.199219 457.570312 280.492188 457.292969 280.722656 456.980469 C 280.957031 456.644531 281.25 456.390625 281.40625 456.390625 C 281.542969 456.390625 282.128906 455.996094 282.714844 455.503906 C 283.300781 455.011719 283.867188 454.621094 283.984375 454.621094 C 284.082031 454.617188 284.375 454.402344 284.628906 454.128906 C 284.882812 453.851562 285.195312 453.636719 285.3125 453.636719 C 285.449219 453.636719 285.957031 453.28125 286.445312 452.847656 C 286.933594 452.417969 287.402344 452.0625 287.5 452.0625 C 287.597656 452.0625 287.988281 451.746094 288.359375 451.355469 C 288.710938 450.960938 289.355469 450.492188 289.765625 450.273438 C 290.15625 450.058594 290.488281 449.800781 290.484375 449.703125 C 290.484375 449.605469 290.855469 449.351562 291.324219 449.113281 C 292.402344 448.582031 293.007812 448.226562 293.28125 447.953125 C 293.394531 447.835938 293.613281 447.734375 293.75 447.734375 C 293.886719 447.734375 294.335938 447.535156 294.746094 447.28125 C 295.136719 447.023438 295.839844 446.671875 296.308594 446.492188 C 296.777344 446.296875 297.695312 445.800781 298.359375 445.371094 C 299.003906 444.9375 299.648438 444.582031 299.785156 444.582031 C 299.902344 444.582031 300.117188 444.460938 300.234375 444.324219 C 300.351562 444.167969 300.957031 443.890625 301.566406 443.695312 C 302.191406 443.476562 302.835938 443.199219 303.011719 443.0625 C 303.167969 442.925781 303.421875 442.804688 303.539062 442.804688 C 303.675781 442.804688 303.929688 442.726562 304.125 442.609375 C 304.300781 442.507812 305.023438 442.15625 305.726562 441.820312 C 307.9375 440.753906 308.210938 440.578125 309.769531 439.125 C 311.957031 437.101562 312.40625 436.726562 312.972656 436.410156 C 313.265625 436.253906 313.714844 435.859375 313.984375 435.527344 C 314.257812 435.214844 314.570312 434.9375 314.667969 434.9375 C 314.765625 434.9375 315.507812 434.328125 316.289062 433.5625 C 317.089844 432.816406 317.8125 432.1875 317.910156 432.1875 C 318.007812 432.1875 318.242188 432.046875 318.4375 431.871094 C 318.75 431.597656 319.433594 431.203125 322.558594 429.546875 C 323.28125 429.152344 323.925781 428.71875 324.023438 428.582031 C 324.101562 428.445312 324.511719 428.171875 324.902344 427.992188 C 325.292969 427.796875 325.644531 427.578125 325.683594 427.5 C 325.722656 427.421875 326.230469 427.046875 326.816406 426.675781 C 327.402344 426.300781 328.203125 425.769531 328.574219 425.453125 C 328.945312 425.160156 329.472656 424.746094 329.746094 424.53125 C 330.019531 424.316406 330.757812 423.707031 331.402344 423.195312 C 332.90625 421.996094 333.785156 421.210938 335.519531 419.5 C 337.335938 417.714844 338.015625 417.105469 338.71875 416.691406 C 339.011719 416.496094 339.519531 416.101562 339.832031 415.808594 C 341.042969 414.609375 343.675781 412.40625 344.339844 412.035156 C 344.710938 411.816406 345.570312 411.128906 346.214844 410.519531 C 347.757812 409.066406 347.953125 408.871094 348.203125 408.554688 C 348.710938 407.96875 349.960938 406.886719 350.292969 406.769531 C 350.507812 406.6875 350.703125 406.453125 350.761719 406.238281 C 350.816406 406.003906 351.128906 405.6875 351.441406 405.53125 C 351.753906 405.375 352.105469 405.019531 352.222656 404.765625 C 352.339844 404.492188 352.515625 404.273438 352.632812 404.273438 C 352.730469 404.273438 353.21875 403.863281 353.726562 403.332031 C 356.730469 400.289062 359.832031 397.457031 361.742188 396.023438 C 362.09375 395.75 362.757812 395.199219 363.207031 394.785156 C 363.65625 394.390625 364.105469 394.058594 364.183594 394.058594 C 364.261719 394.058594 364.613281 393.820312 364.964844 393.507812 C 366.097656 392.5625 367.992188 391.304688 368.265625 391.304688 C 368.421875 391.300781 368.617188 391.203125 368.675781 391.085938 C 368.753906 390.96875 369.164062 390.636719 369.59375 390.320312 C 370.007812 390.011719 370.253906 389.867188 370.542969 389.867188 C 370.769531 389.867188 371.027344 389.957031 371.414062 390.117188 C 372.570312 390.601562 375.011719 391.273438 375.585938 391.273438 L 375.589844 391.273438 C 375.945312 391.273438 377.160156 391.582031 378.292969 391.949219 C 379.410156 392.316406 380.667969 392.660156 381.078125 392.71875 C 381.46875 392.777344 382.644531 393.085938 383.664062 393.394531 C 384.683594 393.703125 385.917969 394.070312 386.410156 394.183594 C 386.898438 394.320312 387.917969 394.609375 388.664062 394.859375 C 389.429688 395.089844 391.054688 395.378906 392.289062 395.488281 C 393.523438 395.601562 395.34375 395.828125 396.304688 395.984375 C 397.285156 396.15625 399.871094 396.496094 402.085938 396.742188 C 404.300781 397.007812 406.808594 397.347656 407.667969 397.5 C 408.53125 397.675781 410.257812 397.921875 411.488281 398.074219 C 414.683594 398.453125 415.488281 398.585938 415.703125 398.742188 C 415.820312 398.820312 416.351562 398.972656 416.878906 399.089844 C 417.429688 399.203125 418.113281 399.394531 418.429688 399.492188 L 418.976562 399.707031 L 416.753906 401.925781 C 414.257812 404.4375 413.398438 405.378906 412.132812 407.066406 C 411.644531 407.714844 411.042969 408.402344 410.808594 408.597656 C 410.574219 408.792969 410.320312 409.128906 410.242188 409.363281 C 410.183594 409.597656 409.953125 409.929688 409.757812 410.089844 C 409.5625 410.265625 409.191406 410.855469 408.917969 411.402344 C 408.648438 411.933594 408.257812 412.539062 408.042969 412.734375 C 407.828125 412.933594 407.597656 413.34375 407.539062 413.636719 C 407.480469 413.929688 407.171875 414.578125 406.878906 415.046875 C 406.566406 415.539062 406.257812 416.144531 406.179688 416.402344 C 406.082031 416.65625 405.828125 417.183594 405.578125 417.578125 C 405.34375 417.96875 404.992188 418.617188 404.839844 419.027344 C 404.664062 419.417969 404.273438 420.066406 403.964844 420.457031 C 403.671875 420.871094 403.222656 421.535156 402.988281 421.96875 C 402.171875 423.476562 401.550781 424.515625 400.910156 425.417969 C 400.539062 425.929688 400.246094 426.417969 400.246094 426.515625 C 400.246094 426.613281 399.996094 427.046875 399.664062 427.476562 C 399.351562 427.890625 399.078125 428.320312 399.078125 428.417969 C 399.082031 428.515625 398.808594 428.949219 398.496094 429.398438 C 398.164062 429.851562 397.484375 430.910156 396.957031 431.773438 C 396.453125 432.632812 395.8125 433.59375 395.519531 433.910156 C 395.246094 434.203125 394.953125 434.65625 394.875 434.871094 C 394.796875 435.105469 394.410156 435.753906 394 436.300781 C 393.570312 436.851562 393.242188 437.4375 393.242188 437.613281 C 393.242188 437.8125 393.164062 437.949219 393.046875 437.949219 C 392.949219 437.949219 392.636719 438.339844 392.367188 438.8125 C 392.09375 439.300781 391.488281 440.027344 391.039062 440.441406 C 390.59375 440.851562 389.910156 441.65625 389.539062 442.207031 C 389.171875 442.773438 388.761719 443.246094 388.625 443.246094 C 388.253906 443.25 387.785156 443.835938 387.785156 444.304688 C 387.789062 444.5625 387.476562 445.089844 387.105469 445.484375 C 386.734375 445.894531 386.425781 446.386719 386.425781 446.601562 C 386.425781 446.796875 386.347656 446.972656 386.269531 446.972656 C 386.171875 446.972656 385.859375 447.324219 385.527344 447.777344 C 385.21875 448.207031 384.769531 448.796875 384.535156 449.070312 C 384.28125 449.347656 384.085938 449.71875 384.089844 449.894531 C 384.089844 450.375 381.847656 452.730469 381.433594 452.730469 C 381.40625 452.730469 381.390625 452.71875 381.378906 452.703125 C 381.234375 452.472656 380.65625 452.328125 380.132812 452.328125 C 379.855469 452.328125 379.59375 452.367188 379.417969 452.457031 C 379.203125 452.59375 378.699219 453.339844 378.328125 454.125 C 377.667969 455.554688 376.441406 457.496094 376.011719 457.867188 C 375.546875 458.242188 374.109375 461.296875 373.992188 462.121094 C 373.917969 462.707031 373.722656 463.121094 373.273438 463.550781 C 372.925781 463.867188 372.59375 464.375 372.535156 464.667969 C 372.402344 465.160156 370.859375 466.398438 370.328125 466.398438 C 370.015625 466.398438 369.472656 467.261719 369.472656 467.753906 C 369.476562 468.515625 370.226562 469.839844 371.089844 470.601562 C 372.664062 471.964844 373.09375 472.292969 373.605469 472.507812 C 373.878906 472.605469 374.371094 472.816406 374.722656 472.953125 C 375.054688 473.109375 375.425781 473.222656 375.566406 473.222656 C 375.683594 473.222656 376.078125 473.4375 376.429688 473.707031 C 376.78125 473.980469 377.136719 474.195312 377.195312 474.195312 C 377.273438 474.195312 377.785156 474.40625 378.351562 474.679688 C 378.902344 474.929688 379.667969 475.203125 380.058594 475.257812 C 380.707031 475.375 382.863281 476.128906 383.609375 476.515625 C 383.785156 476.59375 384.292969 476.730469 384.746094 476.804688 C 385.195312 476.882812 385.941406 477.113281 386.390625 477.328125 C 387.371094 477.792969 389.25 478.449219 389.605469 478.449219 L 389.609375 478.449219 C 389.746094 478.449219 390.433594 478.71875 391.117188 479.027344 C 391.824219 479.359375 392.527344 479.609375 392.6875 479.609375 C 392.84375 479.609375 393.53125 479.917969 394.199219 480.289062 C 394.863281 480.65625 395.648438 481.023438 395.945312 481.101562 C 396.21875 481.160156 396.707031 481.390625 397.003906 481.605469 C 397.316406 481.820312 397.964844 482.109375 398.453125 482.246094 C 398.945312 482.398438 399.75 482.769531 400.257812 483.058594 C 400.75 483.371094 401.4375 483.679688 401.75 483.757812 C 402.082031 483.835938 402.769531 484.105469 403.28125 484.378906 C 403.828125 484.648438 404.632812 484.882812 405.140625 484.898438 C 405.652344 484.914062 406.101562 484.992188 406.179688 485.070312 C 406.4375 485.421875 408.511719 485.628906 412.585938 485.730469 C 413.632812 485.75 414.460938 485.761719 415.101562 485.761719 C 416.414062 485.761719 416.933594 485.710938 416.933594 485.59375 C 416.933594 485.476562 417.285156 485.378906 417.832031 485.375 C 419.8125 485.367188 423.273438 484.21875 423.933594 483.355469 C 424.070312 483.179688 424.285156 482.90625 424.421875 482.765625 C 425.222656 481.960938 425.355469 481.492188 425.234375 480.027344 C 425.089844 478.636719 424.675781 477.332031 424.363281 477.332031 L 424.359375 477.332031 C 424.28125 477.332031 424.105469 477.136719 423.96875 476.882812 C 423.574219 476.140625 422.496094 475.695312 420.222656 475.292969 C 419.417969 475.140625 418.007812 474.890625 417.085938 474.738281 C 416.164062 474.566406 415.125 474.394531 414.792969 474.335938 C 414.324219 474.261719 414.144531 474.125 414.144531 473.851562 C 414.144531 473.636719 413.90625 473.363281 413.613281 473.226562 C 413.320312 473.089844 413.042969 472.800781 413.003906 472.585938 C 412.882812 471.957031 412.609375 471.746094 411.726562 471.613281 C 411.277344 471.535156 410.433594 471.246094 409.863281 470.972656 C 409.019531 470.566406 408.746094 470.3125 408.429688 469.628906 C 408.210938 469.160156 407.917969 468.792969 407.761719 468.792969 L 407.757812 468.792969 C 407.601562 468.792969 407.464844 468.675781 407.464844 468.539062 C 407.464844 468.382812 407.109375 467.992188 406.679688 467.640625 C 406.246094 467.3125 405.753906 466.765625 405.597656 466.453125 C 405.417969 466.140625 405.066406 465.808594 404.8125 465.753906 C 404.496094 465.675781 404.320312 465.5 404.320312 465.265625 C 404.320312 465.050781 404.179688 464.835938 404.023438 464.777344 C 403.867188 464.699219 403.730469 464.523438 403.726562 464.367188 C 403.726562 464.210938 403.292969 463.664062 402.746094 463.140625 C 401.703125 462.144531 401.503906 461.578125 402.152344 461.578125 C 402.347656 461.578125 402.621094 461.398438 402.738281 461.164062 C 402.988281 460.714844 402.847656 459.816406 402.535156 459.816406 C 402.417969 459.816406 402.339844 459.523438 402.335938 459.152344 C 402.335938 458.800781 402.15625 458.273438 401.941406 458 C 401.488281 457.453125 401.542969 456.710938 402.105469 455.417969 C 402.941406 453.554688 403.097656 453.144531 403.09375 452.890625 C 403.09375 452.734375 403.230469 452.574219 403.386719 452.496094 C 403.5625 452.4375 403.679688 452.144531 403.679688 451.8125 C 403.675781 451.5 403.734375 451.207031 403.832031 451.164062 C 404.164062 451.027344 405.039062 449.636719 405.039062 449.261719 C 405.039062 449.027344 405.132812 448.851562 405.234375 448.851562 C 405.351562 448.851562 405.425781 448.636719 405.425781 448.382812 C 405.425781 448.148438 405.640625 447.695312 405.910156 447.402344 C 406.164062 447.128906 406.925781 446.164062 407.585938 445.261719 C 408.25 444.378906 409.046875 443.378906 409.339844 443.066406 C 410.492188 441.808594 411.269531 440.847656 411.269531 440.691406 C 411.289062 440.59375 411.5625 440.339844 411.914062 440.121094 C 412.265625 439.90625 412.617188 439.550781 412.714844 439.316406 C 412.8125 439.101562 413.140625 438.765625 413.453125 438.589844 C 413.746094 438.414062 414 438.15625 414 438.019531 C 414.019531 437.882812 414.371094 437.53125 414.78125 437.234375 C 415.210938 436.941406 415.5625 436.546875 415.5625 436.390625 C 415.558594 436.234375 415.675781 436.097656 415.8125 436.097656 C 415.972656 436.097656 416.398438 435.761719 416.789062 435.347656 C 417.160156 434.957031 417.882812 434.308594 418.390625 433.933594 C 418.878906 433.5625 419.582031 432.972656 419.914062 432.636719 C 420.261719 432.304688 421.277344 431.359375 422.195312 430.574219 C 425.101562 428.019531 435.085938 417.871094 437.113281 415.398438 C 438.476562 413.730469 439.042969 413.082031 439.609375 412.550781 C 441.871094 410.449219 447.546875 404.34375 447.542969 403.992188 C 447.542969 403.777344 449.0625 401.539062 449.667969 400.855469 C 450.503906 399.929688 451.789062 397.597656 452 396.640625 C 452.113281 396.148438 452.207031 394.625 452.199219 393.253906 C 452.191406 390.984375 452.152344 390.671875 451.699219 389.835938 C 451.441406 389.328125 451.007812 388.703125 450.714844 388.449219 C 450.4375 388.195312 450.222656 387.921875 450.222656 387.824219 C 450.21875 387.726562 450.023438 387.609375 449.769531 387.554688 C 449.515625 387.476562 448.984375 387.085938 448.570312 386.660156 C 448.097656 386.191406 446.980469 385.492188 445.625 384.832031 C 444.429688 384.25 443.3125 383.6875 443.15625 383.589844 C 442.996094 383.492188 442.074219 383.046875 441.113281 382.582031 C 440.132812 382.117188 438.816406 381.378906 438.152344 380.949219 C 437.484375 380.523438 436.578125 379.960938 436.128906 379.6875 C 435.675781 379.414062 434.714844 378.832031 433.988281 378.367188 C 433.261719 377.917969 432.496094 377.492188 432.320312 377.433594 C 432.125 377.375 431.96875 377.238281 431.96875 377.140625 C 431.964844 377.042969 431.867188 376.964844 431.75 376.964844 C 431.632812 376.964844 431.261719 376.753906 430.90625 376.480469 C 430.554688 376.207031 430.179688 375.996094 430.0625 375.996094 C 429.964844 375.996094 429.710938 375.820312 429.53125 375.625 C 429.335938 375.410156 428.902344 375.140625 428.570312 375.003906 C 428.21875 374.867188 427.550781 374.480469 427.058594 374.128906 C 426.570312 373.800781 425.960938 373.449219 425.683594 373.371094 C 425.410156 373.296875 425.019531 373.0625 424.800781 372.867188 C 424.585938 372.671875 424.015625 372.382812 423.546875 372.207031 C 423.09375 372.054688 422.46875 371.722656 422.152344 371.46875 C 421.859375 371.21875 421.308594 370.90625 420.957031 370.769531 C 420.582031 370.636719 420.152344 370.441406 419.996094 370.34375 C 419.835938 370.265625 419.386719 370.035156 419.011719 369.859375 C 418.640625 369.683594 417.484375 369.160156 416.464844 368.675781 C 415.441406 368.191406 414.34375 367.667969 414.011719 367.511719 C 413.695312 367.339844 412.992188 366.988281 412.441406 366.71875 C 411.910156 366.464844 411.222656 366.039062 410.929688 365.765625 C 410.632812 365.492188 410.222656 365.160156 410.027344 365.042969 C 409.808594 364.929688 409.222656 364.539062 408.710938 364.191406 C 408.21875 363.859375 407.691406 363.570312 407.535156 363.570312 L 407.53125 363.570312 C 407.375 363.570312 407.21875 363.492188 407.160156 363.414062 C 407.101562 363.316406 406.414062 363.003906 405.628906 362.714844 C 404.84375 362.425781 404.0625 362.117188 403.902344 362.019531 C 403.039062 361.492188 401.882812 361.085938 400.765625 360.898438 C 400.082031 360.761719 399.433594 360.589844 399.316406 360.472656 C 399.21875 360.375 398.851562 360.28125 398.519531 360.28125 C 398.515625 360.28125 398.515625 360.28125 398.511719 360.28125 C 398.511719 360.28125 398.507812 360.28125 398.507812 360.28125 C 398.136719 360.28125 397.746094 360.125 397.53125 359.890625 C 397.316406 359.660156 396.925781 359.503906 396.519531 359.503906 C 396.515625 359.503906 396.511719 359.503906 396.511719 359.503906 C 396.507812 359.503906 396.507812 359.503906 396.503906 359.503906 C 396.15625 359.503906 395.863281 359.410156 395.863281 359.292969 C 395.863281 359.019531 396.898438 358.15625 398.011719 357.503906 C 398.5 357.230469 399.125 356.757812 399.398438 356.480469 C 399.652344 356.207031 399.964844 355.972656 400.082031 355.96875 C 400.179688 355.96875 400.53125 355.695312 400.84375 355.378906 C 401.152344 355.066406 401.503906 354.792969 401.621094 354.789062 C 401.742188 354.789062 402.25 354.457031 402.753906 354.042969 C 404.238281 352.863281 405.429688 352.019531 405.996094 351.78125 C 406.269531 351.644531 406.679688 351.367188 406.894531 351.152344 C 407.109375 350.933594 407.636719 350.582031 408.066406 350.363281 C 408.476562 350.148438 409.0625 349.773438 409.335938 349.558594 C 409.609375 349.320312 410.039062 349.066406 410.3125 348.984375 C 410.566406 348.90625 410.898438 348.730469 411.035156 348.59375 C 411.171875 348.453125 411.699219 348.179688 412.207031 347.980469 C 412.738281 347.785156 413.597656 347.351562 414.125 347.015625 C 414.671875 346.699219 415.335938 346.285156 415.609375 346.128906 C 416.664062 345.519531 417.894531 344.496094 418.144531 344.046875 C 418.28125 343.789062 418.496094 343.574219 418.613281 343.574219 C 418.730469 343.574219 419.160156 343.21875 419.550781 342.789062 C 419.921875 342.355469 420.3125 342.003906 420.371094 342.003906 C 420.449219 342.003906 420.839844 341.746094 421.230469 341.433594 C 421.640625 341.097656 422.207031 340.742188 422.539062 340.585938 C 422.851562 340.449219 423.378906 340.152344 423.691406 339.917969 C 424.023438 339.679688 424.746094 339.285156 425.3125 339.050781 C 425.859375 338.8125 426.328125 338.535156 426.328125 338.457031 C 426.328125 338.378906 426.5625 338.242188 426.855469 338.164062 C 427.148438 338.101562 428.046875 337.726562 428.851562 337.332031 C 429.671875 336.957031 430.902344 336.464844 431.585938 336.246094 C 432.289062 336.027344 433.035156 335.730469 433.25 335.59375 C 433.484375 335.457031 434.011719 335.238281 434.441406 335.101562 C 434.871094 334.960938 435.496094 334.6875 435.808594 334.488281 C 436.140625 334.292969 436.902344 333.859375 437.507812 333.503906 C 438.113281 333.167969 438.660156 332.777344 438.71875 332.621094 C 438.777344 332.460938 438.953125 332.34375 439.109375 332.34375 C 439.265625 332.34375 439.773438 331.988281 440.222656 331.558594 C 440.691406 331.125 441.140625 330.769531 441.21875 330.769531 C 441.375 330.769531 444.867188 327.902344 445.082031 327.585938 C 445.171875 327.46875 445.394531 327.417969 445.699219 327.417969 C 446.683594 327.417969 448.519531 327.957031 449.433594 328.625 C 450.21875 329.210938 452.167969 331.097656 452.539062 331.664062 C 452.820312 332.089844 453.609375 332.421875 454.140625 332.421875 C 454.316406 332.421875 454.46875 332.386719 454.558594 332.300781 C 454.675781 332.207031 454.851562 332.164062 455.050781 332.164062 C 455.515625 332.164062 456.125 332.402344 456.480469 332.78125 C 456.71875 333.035156 457.050781 333.25 457.1875 333.25 C 457.328125 333.25 458.03125 333.597656 458.738281 334.027344 C 459.445312 334.453125 460.074219 334.800781 460.09375 334.800781 C 460.132812 334.800781 460.917969 335.152344 461.839844 335.578125 C 462.757812 336.003906 463.5625 336.351562 463.664062 336.351562 C 463.742188 336.351562 464.230469 336.566406 464.742188 336.835938 C 465.800781 337.398438 469.703125 338.8125 470.878906 339.0625 C 471.683594 339.234375 473.132812 339.699219 473.820312 340.027344 C 474.035156 340.125 474.878906 340.375 475.683594 340.585938 C 477.132812 340.953125 479.132812 341.589844 480.289062 342.074219 C 481.46875 342.558594 482.46875 342.90625 483.132812 343.082031 C 483.507812 343.195312 484.703125 343.523438 485.78125 343.851562 C 488.148438 344.539062 489.414062 344.839844 490.34375 344.839844 C 490.847656 344.839844 491.253906 344.75 491.679688 344.589844 C 492.324219 344.335938 493.90625 343.097656 493.902344 342.824219 C 493.902344 342.585938 496.589844 338.976562 497.449219 338.074219 C 497.859375 337.644531 498.1875 337.171875 498.1875 337.015625 C 498.1875 336.859375 498.441406 336.449219 498.734375 336.113281 C 499.375 335.425781 500.914062 333.035156 500.914062 332.742188 C 500.910156 332.644531 501.085938 332.386719 501.320312 332.171875 C 501.554688 331.976562 501.90625 331.464844 502.121094 331.035156 C 502.332031 330.625 502.761719 329.917969 503.074219 329.484375 C 503.382812 329.054688 503.636719 328.605469 503.636719 328.503906 C 503.636719 328.386719 503.792969 328.113281 504.007812 327.898438 C 504.199219 327.664062 504.667969 326.917969 505.039062 326.210938 C 505.40625 325.507812 505.851562 324.664062 506.027344 324.351562 C 506.203125 324.015625 506.476562 323.449219 506.648438 323.074219 C 506.824219 322.703125 507.175781 322 507.445312 321.507812 C 507.699219 321.019531 507.914062 320.46875 507.910156 320.253906 C 507.910156 320.058594 508.257812 319.195312 508.6875 318.335938 C 509.113281 317.472656 509.464844 316.589844 509.460938 316.394531 C 509.460938 316.179688 509.675781 315.574219 509.945312 315.003906 C 510.21875 314.457031 510.429688 313.886719 510.429688 313.730469 C 510.429688 313.398438 510.972656 311.714844 511.28125 311.125 C 511.535156 310.636719 511.746094 309.894531 512.558594 306.820312 C 512.808594 305.898438 513.078125 305.074219 513.15625 304.957031 C 513.253906 304.859375 513.332031 304.546875 513.328125 304.253906 C 513.328125 303.960938 513.660156 303.214844 514.066406 302.589844 C 514.769531 301.507812 515.664062 300.058594 516.1875 299.097656 C 516.324219 298.882812 516.617188 298.53125 516.851562 298.332031 C 517.417969 297.878906 518.972656 295.644531 518.972656 295.3125 C 518.972656 295.15625 519.320312 294.371094 519.75 293.570312 C 520.175781 292.746094 520.527344 291.882812 520.523438 291.628906 C 520.523438 291.394531 520.734375 290.691406 521.007812 290.0625 C 521.53125 288.90625 521.972656 286.285156 521.792969 285.582031 C 521.734375 285.308594 521.964844 284.582031 522.449219 283.621094 C 522.878906 282.757812 523.226562 281.898438 523.226562 281.703125 C 523.226562 281.488281 523.4375 280.859375 523.691406 280.3125 C 524.503906 278.488281 524.847656 276.140625 524.375 275.300781 C 524.207031 274.980469 523.589844 274.773438 523.015625 274.773438 C 522.785156 274.773438 522.5625 274.804688 522.375 274.878906 C 521.847656 275.078125 521.441406 275.921875 520.957031 277.878906 C 520.785156 278.601562 520.515625 279.289062 520.359375 279.425781 C 520.203125 279.542969 520.085938 279.738281 520.085938 279.835938 C 520.085938 279.933594 519.949219 280.152344 519.792969 280.308594 C 519.636719 280.484375 519.5 280.796875 519.503906 281.03125 C 519.484375 281.265625 519.367188 281.679688 519.230469 281.933594 L 518.980469 282.402344 L 518.722656 281.953125 C 518.464844 281.488281 518.523438 281.210938 519.238281 278.941406 C 519.414062 278.394531 519.566406 277.316406 519.601562 276.554688 C 519.617188 275.769531 519.695312 275.027344 519.773438 274.910156 C 519.964844 274.578125 520.265625 271.132812 520.125 270.546875 C 520.007812 269.960938 519.1875 269.4375 518.40625 269.4375 C 518.402344 269.4375 518.402344 269.4375 518.398438 269.4375 C 518.382812 269.4375 518.367188 269.4375 518.355469 269.4375 C 517.929688 269.4375 517.9375 269.402344 518.199219 268.890625 C 518.589844 268.128906 518.527344 267.523438 517.976562 266.996094 C 517.664062 266.671875 517.078125 266.5 516.507812 266.5 C 516.152344 266.5 515.800781 266.566406 515.527344 266.710938 C 515.039062 266.96875 514.1875 268.867188 513.859375 270.433594 C 513.726562 271.140625 513.375 272.136719 513.105469 272.648438 C 512.832031 273.175781 512.601562 273.824219 512.601562 274.117188 C 512.582031 274.375 512.574219 274.503906 512.558594 274.503906 C 512.542969 274.503906 512.523438 274.386719 512.484375 274.15625 C 512.425781 273.902344 512.519531 273.199219 512.675781 272.589844 C 513.769531 268.570312 513.59375 267.507812 511.867188 267.507812 C 511.863281 267.507812 511.855469 267.507812 511.851562 267.507812 C 510.246094 267.515625 509.894531 267.949219 509.277344 270.648438 C 509.144531 271.238281 508.875 272.234375 508.679688 272.882812 C 508.46875 273.507812 508.316406 274.605469 508.316406 275.328125 C 508.300781 276.128906 508.167969 277.011719 507.917969 277.695312 C 507.683594 278.28125 507.316406 279.320312 507.082031 279.988281 C 506.832031 280.652344 506.382812 281.496094 506.074219 281.867188 C 505.761719 282.242188 505.429688 282.671875 505.3125 282.871094 C 505.226562 283.011719 505.171875 283.085938 505.058594 283.085938 C 504.941406 283.085938 504.765625 283.003906 504.433594 282.832031 C 503.546875 282.347656 502.269531 281.238281 502.269531 280.925781 C 502.269531 280.574219 501.070312 279.757812 500.050781 279.410156 C 499.441406 279.203125 498.5 279.109375 497.1875 279.109375 C 497.148438 279.109375 497.113281 279.109375 497.074219 279.109375 C 494.722656 279.117188 494.371094 279.296875 494.476562 280.449219 C 494.535156 281.113281 494.59375 281.171875 495.515625 281.460938 C 496.652344 281.789062 497.359375 282.277344 498.816406 283.738281 C 500.527344 285.429688 500.839844 285.859375 501.21875 287.050781 C 501.417969 287.675781 501.792969 288.496094 502.046875 288.867188 C 502.285156 289.238281 502.5 289.726562 502.503906 289.941406 C 502.503906 290.761719 503.28125 293.242188 503.710938 293.828125 C 504.085938 294.316406 504.148438 294.648438 504.132812 295.78125 C 504.132812 296.527344 504.019531 297.230469 503.902344 297.347656 C 503.804688 297.445312 503.707031 297.660156 503.710938 297.820312 C 503.710938 297.976562 503.59375 298.367188 503.4375 298.699219 C 502.953125 299.835938 502.546875 300.992188 502.546875 301.285156 C 502.546875 301.460938 502.335938 301.910156 502.101562 302.324219 C 501.847656 302.714844 501.578125 303.304688 501.5 303.636719 C 501.421875 303.949219 501.230469 304.359375 501.09375 304.519531 C 500.800781 304.851562 499.671875 306.929688 498.796875 308.730469 C 498.488281 309.359375 498.039062 310.164062 497.789062 310.496094 C 497.554688 310.808594 497.203125 311.398438 497.027344 311.769531 C 496.855469 312.144531 496.523438 312.671875 496.269531 312.949219 C 496.035156 313.222656 495.742188 313.652344 495.628906 313.929688 C 495.511719 314.203125 493.894531 316.027344 492.0625 317.992188 C 490.226562 319.953125 488.726562 321.640625 488.726562 321.71875 C 488.726562 321.796875 488.394531 322.191406 488.007812 322.582031 C 487.597656 322.976562 487.1875 323.410156 487.070312 323.527344 C 485.917969 324.839844 484.726562 325.511719 483.515625 325.515625 C 483.5 325.515625 483.488281 325.515625 483.472656 325.515625 C 482.660156 325.515625 482.347656 325.414062 481.613281 324.839844 C 481.121094 324.46875 480.394531 324.003906 479.960938 323.789062 C 479.550781 323.574219 478.902344 323.070312 478.527344 322.660156 C 477.585938 321.648438 476.484375 320.8125 475.210938 320.132812 C 474.621094 319.820312 473.953125 319.472656 473.738281 319.355469 C 472.460938 318.65625 470.519531 317.765625 469.972656 317.667969 C 469.539062 317.574219 469.324219 317.398438 469.285156 317.125 C 469.242188 316.890625 469.085938 316.65625 468.929688 316.578125 C 468.773438 316.5 468.359375 316.285156 468.007812 316.113281 C 467.675781 315.9375 467.246094 315.804688 467.027344 315.804688 L 467.023438 315.804688 C 466.828125 315.804688 466.554688 315.726562 466.398438 315.628906 C 465.96875 315.355469 466.84375 314.238281 467.488281 314.238281 C 468.585938 314.230469 469.542969 313.777344 469.855469 313.113281 C 470.03125 312.738281 470.300781 312.464844 470.5 312.464844 C 470.695312 312.464844 470.96875 312.34375 471.105469 312.207031 C 471.242188 312.070312 471.515625 311.894531 471.691406 311.8125 C 471.867188 311.753906 472.214844 311.246094 472.46875 310.695312 C 472.800781 309.96875 472.910156 309.769531 473.195312 309.769531 C 473.28125 309.769531 473.378906 309.785156 473.503906 309.8125 C 474.402344 309.976562 475.09375 310.0625 475.617188 310.0625 C 476.695312 310.0625 477.089844 309.691406 477.21875 308.839844 C 477.296875 308.40625 477.566406 307.097656 477.816406 305.941406 C 478.105469 304.648438 478.273438 303.222656 478.269531 302.203125 C 478.261719 300.386719 478.242188 300.40625 479.886719 299.910156 C 480.6875 299.652344 481 299.160156 480.996094 298.085938 C 481.011719 297.734375 481.128906 297.242188 481.285156 296.96875 C 481.441406 296.695312 481.554688 296.285156 481.574219 296.03125 C 481.574219 295.796875 481.671875 295.597656 481.769531 295.597656 C 481.886719 295.597656 481.964844 295.480469 481.964844 295.34375 C 481.960938 294.855469 482.328125 293.773438 482.472656 293.773438 C 482.484375 293.773438 482.496094 293.78125 482.503906 293.796875 C 482.585938 293.914062 483.542969 294.027344 484.660156 294.082031 C 485.777344 294.117188 486.796875 294.269531 486.914062 294.386719 C 487.042969 294.515625 487.324219 294.570312 487.660156 294.570312 C 488.535156 294.570312 489.792969 294.195312 489.789062 293.785156 C 489.789062 293.589844 489.886719 293.414062 489.984375 293.414062 C 490.101562 293.414062 490.179688 293.21875 490.179688 292.984375 C 490.175781 292.75 490.332031 292.394531 490.507812 292.199219 C 490.898438 291.769531 491.105469 289.617188 490.789062 289.246094 C 490.652344 289.089844 490.632812 288.738281 490.746094 288.226562 C 490.84375 287.796875 490.9375 287.132812 490.9375 286.761719 C 490.933594 286.09375 490.058594 282.832031 489.722656 282.265625 C 489.644531 282.109375 489.40625 281.679688 489.230469 281.332031 C 489.054688 281 488.777344 280.707031 488.640625 280.707031 C 488.484375 280.707031 488.207031 280.394531 488.03125 280.023438 C 487.714844 279.359375 485.925781 278.078125 484.378906 277.378906 C 484.003906 277.203125 483.769531 276.914062 483.609375 276.347656 C 483.492188 275.894531 483.195312 275.273438 482.957031 274.960938 C 482.722656 274.628906 482.484375 274.21875 482.40625 274.023438 C 482.328125 273.808594 482.074219 273.695312 481.632812 273.695312 C 481.628906 273.695312 481.625 273.695312 481.621094 273.695312 C 481.617188 273.695312 481.609375 273.695312 481.605469 273.695312 C 480.632812 273.695312 479.796875 273.347656 479.5625 272.839844 C 479.347656 272.359375 478.65625 272.148438 477.320312 272.148438 C 477.300781 272.148438 477.285156 272.148438 477.269531 272.148438 C 477.261719 272.148438 477.257812 272.148438 477.253906 272.148438 C 476.710938 272.148438 476.34375 272.03125 476.109375 271.78125 C 475.933594 271.585938 475.445312 271.273438 475.011719 271.078125 C 474.519531 270.867188 474.226562 270.59375 474.226562 270.378906 C 474.222656 269.734375 473.417969 269.167969 471.222656 268.277344 C 470.929688 268.164062 470.292969 268.070312 469.824219 268.070312 C 469.820312 268.070312 469.816406 268.070312 469.808594 268.070312 C 469.808594 268.070312 469.804688 268.070312 469.800781 268.070312 C 469.320312 268.070312 468.039062 267.9375 466.96875 267.769531 C 466.035156 267.621094 465.148438 267.550781 464.28125 267.550781 C 463.914062 267.550781 463.550781 267.5625 463.191406 267.585938 C 457.964844 267.941406 457.765625 267.960938 457.769531 268.214844 C 457.769531 268.390625 457.378906 268.53125 456.652344 268.609375 C 456.027344 268.671875 455.207031 268.851562 454.835938 269.007812 C 454.460938 269.167969 453.796875 269.386719 453.367188 269.523438 C 452.15625 269.902344 450.984375 270.53125 450.222656 271.238281 C 449.851562 271.589844 449.1875 272.042969 448.757812 272.261719 C 448.347656 272.476562 447.878906 272.910156 447.722656 273.203125 C 447.355469 273.910156 446.339844 275.027344 445.792969 275.304688 C 445.578125 275.402344 445.246094 275.738281 445.089844 276.011719 C 444.914062 276.285156 444.527344 276.914062 444.195312 277.382812 C 443.730469 278.089844 443.613281 278.5 443.558594 279.65625 L 443.484375 281.0625 L 442.683594 281.457031 C 442.292969 281.65625 442.074219 281.75 441.9375 281.75 C 441.828125 281.75 441.765625 281.691406 441.707031 281.578125 C 441.628906 281.421875 441.292969 281.152344 440.980469 280.996094 C 440.644531 280.820312 440.273438 280.410156 440.113281 280.058594 C 439.757812 279.261719 437.339844 276.765625 436.515625 276.339844 C 436.164062 276.164062 435.867188 275.949219 435.867188 275.851562 C 435.867188 275.753906 435.53125 275.523438 435.140625 275.347656 C 434.730469 275.152344 434.355469 274.941406 434.296875 274.863281 C 434.101562 274.570312 432.140625 273.699219 431.6875 273.699219 C 431.429688 273.699219 430.863281 273.464844 430.453125 273.15625 C 429.390625 272.4375 428.84375 272.203125 427.84375 272.050781 C 427.292969 271.996094 426.785156 271.761719 426.488281 271.46875 C 426.195312 271.179688 425.785156 270.984375 425.453125 270.984375 C 425.453125 270.984375 425.449219 270.984375 425.449219 270.984375 C 425.449219 270.984375 425.445312 270.984375 425.445312 270.984375 C 425.09375 270.984375 424.820312 270.851562 424.683594 270.597656 C 424.566406 270.382812 424.015625 269.972656 423.445312 269.703125 C 422.878906 269.410156 422.171875 268.984375 421.835938 268.75 C 421.523438 268.515625 420.855469 268.207031 420.367188 268.050781 C 419.875 267.917969 419.050781 267.492188 418.503906 267.140625 C 417.304688 266.324219 416.695312 266.09375 414.1875 265.457031 C 413.109375 265.167969 412.089844 264.839844 411.933594 264.703125 C 411.773438 264.566406 411.109375 264.21875 410.460938 263.90625 C 409.8125 263.617188 409.144531 263.265625 408.988281 263.128906 C 408.832031 263.015625 408.300781 262.742188 407.832031 262.566406 C 407.339844 262.375 406.714844 262.0625 406.417969 261.851562 C 406.125 261.65625 405.753906 261.480469 405.613281 261.480469 C 405.335938 261.480469 403.574219 260.6875 402.28125 260.007812 C 402.003906 259.855469 401.632812 259.738281 401.476562 259.738281 C 401.316406 259.738281 400.574219 259.390625 399.847656 258.960938 C 399.101562 258.535156 398.355469 258.1875 398.160156 258.1875 C 397.980469 258.1875 397.746094 258.070312 397.667969 257.933594 C 397.589844 257.777344 397.019531 257.351562 396.433594 256.960938 C 395.84375 256.574219 395.136719 256.085938 394.878906 255.910156 C 394.507812 255.640625 393.839844 255.542969 392.039062 255.453125 C 390.726562 255.378906 389.003906 255.230469 388.199219 255.117188 C 385.613281 254.757812 379.1875 254.53125 374.125 254.53125 C 371.136719 254.53125 368.625 254.609375 367.65625 254.789062 C 366.09375 255.070312 363.722656 255.371094 361.472656 255.597656 C 360.394531 255.699219 359.261719 255.878906 358.949219 255.996094 C 358.636719 256.097656 357.714844 256.199219 356.894531 256.21875 C 356.070312 256.222656 354.972656 256.324219 354.425781 256.425781 C 353.898438 256.527344 352.78125 256.707031 351.980469 256.808594 C 351.179688 256.910156 349.984375 257.089844 349.339844 257.210938 C 348.847656 257.316406 348.023438 257.375 347.277344 257.375 C 347.039062 257.375 346.808594 257.371094 346.597656 257.355469 C 344.992188 257.265625 344.03125 256.976562 343.167969 256.316406 C 342.402344 255.730469 339.539062 254.804688 337.382812 254.421875 C 336.304688 254.230469 335.207031 253.980469 334.933594 253.882812 C 334.1875 253.613281 331.546875 252.980469 331.132812 252.980469 L 331.128906 252.980469 C 330.734375 252.980469 329.929688 252.394531 328.398438 250.976562 C 327.828125 250.449219 327.042969 249.75 326.632812 249.417969 C 326.21875 249.066406 325.175781 248.132812 324.3125 247.316406 C 323.308594 246.359375 322.523438 245.777344 322.152344 245.699219 C 321.792969 245.632812 321.507812 245.597656 321.261719 245.597656 Z M 321.261719 245.597656 " fill-opacity="1" fill-rule="nonzero"/></g><g mask="url(#id3)"><g transform="matrix(1, 0, 0, 1, 179, 91)"><g clip-path="url(#id5)"><g clip-path="url(#id4)"><path fill="#ffffff" d="M 28.222656 2.296875 C 17.5 5.5625 9.425781 12.402344 3.984375 22.660156 C 1.1875 27.941406 1.027344 37.421875 0.566406 268.191406 C 0.253906 489.175781 0.414062 508.914062 2.738281 515.132812 C 6.316406 524.613281 14.390625 532.84375 23.558594 536.886719 L 31.324219 540.152344 L 194.003906 539.835938 C 349.53125 539.371094 357.144531 539.214844 362.273438 536.421875 C 369.886719 532.382812 375.945312 526.476562 379.828125 519.167969 L 383.246094 512.953125 L 383.710938 272.855469 C 384.027344 52.957031 383.867188 32.132812 381.539062 25.914062 C 377.964844 16.589844 370.664062 8.820312 361.496094 4.625 L 353.730469 0.894531 L 192.921875 1.050781 C 104.507812 1.054688 30.394531 1.675781 28.222656 2.296875 Z M 357.300781 19.550781 C 360.09375 21.261719 363.671875 24.832031 365.382812 27.632812 C 368.488281 32.761719 368.488281 36.023438 368.488281 270.527344 C 368.488281 505.027344 368.488281 508.292969 365.382812 513.417969 C 363.671875 516.214844 360.101562 519.792969 357.300781 521.503906 C 352.324219 524.613281 349.0625 524.613281 192.140625 524.613281 C 35.210938 524.613281 31.949219 524.613281 26.980469 521.503906 C 24.183594 519.792969 20.609375 516.21875 18.898438 513.417969 C 15.789062 508.292969 15.789062 505.027344 15.789062 270.527344 C 15.789062 36.023438 15.789062 32.761719 18.898438 27.632812 C 20.609375 24.835938 24.179688 21.261719 26.980469 19.550781 C 31.953125 16.441406 35.214844 16.441406 192.140625 16.441406 C 349.0625 16.441406 352.324219 16.441406 357.300781 19.550781 Z M 357.300781 19.550781 " fill-opacity="1" fill-rule="nonzero"/></g><path fill="#ffffff" d="M 53.078125 119.785156 L 53.078125 178.0625 L 331.199219 178.0625 L 331.199219 61.507812 L 53.078125 61.507812 Z M 315.660156 119.785156 L 315.660156 162.523438 L 68.621094 162.523438 L 68.621094 77.046875 L 315.660156 77.046875 Z M 315.660156 119.785156 " fill-opacity="1" fill-rule="nonzero"/><path fill="#ffffff" d="M 65.511719 204.945312 C 53.390625 208.832031 43.757812 224.992188 45.777344 237.890625 C 47.957031 251.410156 55.878906 260.269531 69.082031 263.6875 C 91.925781 269.90625 112.433594 248.457031 105.902344 225.148438 C 101.089844 208.519531 83.066406 199.351562 65.511719 204.945312 Z M 83.996094 220.640625 C 94.40625 226.078125 94.097656 242.863281 83.375 247.679688 C 75.453125 251.257812 66.75 248.769531 63.019531 241.621094 C 55.726562 227.480469 69.859375 213.339844 83.996094 220.640625 Z M 83.996094 220.640625 " fill-opacity="1" fill-rule="nonzero"/><path fill="#ffffff" d="M 143.199219 204.945312 C 131.078125 208.832031 121.445312 224.992188 123.464844 237.890625 C 125.644531 251.410156 133.566406 260.269531 146.769531 263.6875 C 169.609375 269.90625 190.121094 248.457031 183.589844 225.148438 C 178.777344 208.519531 160.753906 199.351562 143.199219 204.945312 Z M 161.683594 220.640625 C 172.09375 226.078125 171.785156 242.863281 161.0625 247.679688 C 153.140625 251.257812 144.4375 248.769531 140.707031 241.621094 C 133.410156 227.480469 147.542969 213.339844 161.683594 220.640625 Z M 161.683594 220.640625 " fill-opacity="1" fill-rule="nonzero"/><path fill="#ffffff" d="M 222.4375 204.945312 C 210.316406 208.832031 200.683594 224.992188 202.703125 237.890625 C 204.878906 251.410156 212.804688 260.269531 226.007812 263.6875 C 248.847656 269.90625 269.359375 248.457031 262.828125 225.148438 C 258.019531 208.519531 239.992188 199.351562 222.4375 204.945312 Z M 240.925781 220.640625 C 251.335938 226.078125 251.027344 242.863281 240.304688 247.679688 C 226.167969 254.050781 212.496094 239.757812 219.949219 226.390625 C 223.992188 219.089844 233.003906 216.601562 240.925781 220.640625 Z M 240.925781 220.640625 " fill-opacity="1" fill-rule="nonzero"/><path fill="#ffffff" d="M 300.121094 204.945312 C 288.003906 208.832031 278.371094 224.992188 280.386719 237.890625 C 282.566406 251.410156 290.488281 260.269531 303.691406 263.6875 C 326.535156 269.90625 347.042969 248.457031 340.515625 225.148438 C 335.707031 208.519531 317.683594 199.351562 300.121094 204.945312 Z M 318.613281 220.640625 C 329.023438 226.078125 328.714844 242.863281 317.992188 247.679688 C 303.851562 254.050781 290.179688 239.757812 297.636719 226.390625 C 301.679688 219.089844 310.691406 216.601562 318.613281 220.640625 Z M 318.613281 220.640625 " fill-opacity="1" fill-rule="nonzero"/><path fill="#ffffff" d="M 65.511719 282.648438 C 53.390625 286.53125 43.757812 302.695312 45.777344 315.59375 C 47.957031 329.113281 55.878906 337.972656 69.082031 341.386719 C 91.925781 347.605469 112.433594 326.15625 105.902344 302.847656 C 101.089844 286.21875 83.066406 277.050781 65.511719 282.648438 Z M 83.996094 298.339844 C 94.40625 303.777344 94.097656 320.5625 83.375 325.382812 C 69.234375 331.753906 55.566406 317.457031 63.019531 304.089844 C 67.0625 296.789062 76.074219 294.300781 83.996094 298.339844 Z M 83.996094 298.339844 " fill-opacity="1" fill-rule="nonzero"/><path fill="#ffffff" d="M 143.199219 282.648438 C 131.078125 286.53125 121.445312 302.695312 123.464844 315.59375 C 125.644531 329.113281 133.566406 337.972656 146.769531 341.386719 C 169.609375 347.605469 190.121094 326.15625 183.589844 302.847656 C 178.777344 286.21875 160.753906 277.050781 143.199219 282.648438 Z M 161.683594 298.339844 C 172.09375 303.777344 171.785156 320.5625 161.0625 325.382812 C 146.921875 331.753906 133.25 317.457031 140.707031 304.089844 C 144.75 296.789062 153.761719 294.300781 161.683594 298.339844 Z M 161.683594 298.339844 " fill-opacity="1" fill-rule="nonzero"/><path fill="#ffffff" d="M 222.4375 282.648438 C 210.316406 286.53125 200.683594 302.695312 202.703125 315.59375 C 204.878906 329.113281 212.804688 337.972656 226.007812 341.386719 C 248.847656 347.605469 269.359375 326.15625 262.828125 302.847656 C 258.019531 286.21875 239.992188 277.050781 222.4375 282.648438 Z M 240.925781 298.339844 C 251.335938 303.777344 251.027344 320.5625 240.304688 325.382812 C 232.378906 328.957031 223.679688 326.46875 219.949219 319.324219 C 212.648438 305.179688 226.789062 291.039062 240.925781 298.339844 Z M 240.925781 298.339844 " fill-opacity="1" fill-rule="nonzero"/><path fill="#ffffff" d="M 300.121094 282.648438 C 288.003906 286.53125 278.371094 302.695312 280.386719 315.59375 C 282.566406 329.113281 290.488281 337.972656 303.691406 341.386719 C 326.535156 347.605469 347.042969 326.15625 340.515625 302.847656 C 335.707031 286.21875 317.683594 277.050781 300.121094 282.648438 Z M 318.613281 298.339844 C 329.023438 303.777344 328.714844 320.5625 317.992188 325.382812 C 310.070312 328.957031 301.367188 326.46875 297.636719 319.324219 C 290.335938 305.179688 304.472656 291.039062 318.613281 298.339844 Z M 318.613281 298.339844 " fill-opacity="1" fill-rule="nonzero"/><path fill="#ffffff" d="M 65.511719 358.792969 C 53.390625 362.675781 43.757812 378.839844 45.777344 391.734375 C 47.957031 405.257812 55.878906 414.113281 69.082031 417.53125 C 91.925781 423.75 112.433594 402.300781 105.902344 378.992188 C 101.089844 362.371094 83.066406 353.203125 65.511719 358.792969 Z M 83.996094 374.492188 C 94.40625 379.933594 94.097656 396.714844 83.375 401.53125 C 69.234375 407.902344 55.566406 393.605469 63.019531 380.242188 C 67.0625 372.941406 76.074219 370.453125 83.996094 374.492188 Z M 83.996094 374.492188 " fill-opacity="1" fill-rule="nonzero"/><path fill="#ffffff" d="M 143.199219 358.792969 C 131.078125 362.675781 121.445312 378.839844 123.464844 391.734375 C 125.644531 405.257812 133.566406 414.113281 146.769531 417.53125 C 169.609375 423.75 190.121094 402.300781 183.589844 378.992188 C 178.777344 362.371094 160.753906 353.203125 143.199219 358.792969 Z M 161.683594 374.492188 C 172.09375 379.933594 171.785156 396.714844 161.0625 401.53125 C 146.921875 407.902344 133.25 393.605469 140.707031 380.242188 C 144.75 372.941406 153.761719 370.453125 161.683594 374.492188 Z M 161.683594 374.492188 " fill-opacity="1" fill-rule="nonzero"/><path fill="#ffffff" d="M 222.4375 358.792969 C 210.316406 362.675781 200.683594 378.839844 202.703125 391.734375 C 204.878906 405.257812 212.804688 414.113281 226.007812 417.53125 C 248.847656 423.75 269.359375 402.300781 262.828125 378.992188 C 258.019531 362.371094 239.992188 353.203125 222.4375 358.792969 Z M 240.925781 374.492188 C 251.335938 379.933594 251.027344 396.714844 240.304688 401.53125 C 232.378906 405.109375 223.679688 402.621094 219.949219 395.472656 C 212.648438 381.324219 226.789062 367.1875 240.925781 374.492188 Z M 240.925781 374.492188 " fill-opacity="1" fill-rule="nonzero"/><path fill="#ffffff" d="M 300.4375 358.484375 C 293.289062 360.664062 283.496094 370.761719 281.476562 378.53125 C 280.390625 382.570312 279.925781 400.59375 280.234375 429.5 C 280.703125 469.59375 281.011719 474.726562 283.652344 480.007812 C 289.707031 492.128906 304.9375 498.96875 318.300781 495.238281 C 327.777344 492.753906 334.609375 487.46875 338.339844 480.007812 C 340.980469 474.726562 341.296875 469.597656 341.757812 429.8125 C 342.226562 379.773438 341.605469 374.960938 332.746094 366.101562 C 324.515625 357.863281 312.554688 355.066406 300.4375 358.484375 Z M 318.613281 374.492188 C 326.074219 378.375 326.535156 381.640625 326.535156 426.859375 C 326.535156 472.394531 326.066406 475.65625 317.992188 479.230469 C 310.070312 482.808594 301.367188 480.320312 297.636719 473.175781 C 294.527344 467.109375 294.527344 385.835938 297.636719 380.242188 C 301.679688 372.941406 310.691406 370.453125 318.613281 374.492188 Z M 318.613281 374.492188 " fill-opacity="1" fill-rule="nonzero"/><path fill="#ffffff" d="M 65.511719 436.492188 C 53.390625 440.378906 43.757812 456.539062 45.777344 469.4375 C 47.957031 482.957031 55.878906 491.816406 69.082031 495.234375 C 91.925781 501.453125 112.433594 480.003906 105.902344 456.695312 C 101.089844 440.070312 83.066406 430.902344 65.511719 436.492188 Z M 83.996094 452.191406 C 94.40625 457.636719 94.097656 474.417969 83.375 479.230469 C 69.234375 485.605469 55.566406 471.308594 63.019531 457.941406 C 67.0625 450.640625 76.074219 448.152344 83.996094 452.191406 Z M 83.996094 452.191406 " fill-opacity="1" fill-rule="nonzero"/><path fill="#ffffff" d="M 143.199219 436.492188 C 131.078125 440.378906 121.445312 456.539062 123.464844 469.4375 C 125.644531 482.957031 133.566406 491.816406 146.769531 495.234375 C 169.609375 501.453125 190.121094 480.003906 183.589844 456.695312 C 178.777344 440.070312 160.753906 430.902344 143.199219 436.492188 Z M 161.683594 452.191406 C 172.09375 457.636719 171.785156 474.417969 161.0625 479.230469 C 146.921875 485.605469 133.25 471.308594 140.707031 457.941406 C 144.75 450.640625 153.761719 448.152344 161.683594 452.191406 Z M 161.683594 452.191406 " fill-opacity="1" fill-rule="nonzero"/><path fill="#ffffff" d="M 222.4375 436.492188 C 210.316406 440.378906 200.683594 456.539062 202.703125 469.4375 C 204.878906 482.957031 212.804688 491.816406 226.007812 495.234375 C 248.847656 501.453125 269.359375 480.003906 262.828125 456.695312 C 258.019531 440.070312 239.992188 430.902344 222.4375 436.492188 Z M 240.925781 452.191406 C 248.226562 456.078125 250.714844 465.089844 246.675781 473.175781 C 241.238281 483.429688 225.390625 483.429688 219.949219 473.175781 C 212.648438 459.027344 226.789062 444.890625 240.925781 452.191406 Z M 240.925781 452.191406 " fill-opacity="1" fill-rule="nonzero"/></g></g></g></svg>